<svg xmlns="http://www.w3.org/2000/svg" viewBox="0 0 308.46 96.06"><defs><style>.cls-1{fill:#ef3d3b;}</style></defs><g id="Layer_2" data-name="Layer 2"><g id="Layer_1-2" data-name="Layer 1"><path class="cls-1" d="M0,21.25c3.12-1,6.06-2,8.8-2.87s5.65-1.71,8.69-2.49,6-1.42,8.75-1.88a39.57,39.57,0,0,1,6.58-.54,52.82,52.82,0,0,1,7.35.31,20.46,20.46,0,0,1,5,1.62,14.85,14.85,0,0,1,4.18,3,15.58,15.58,0,0,1,3,4.43A5.57,5.57,0,0,1,52.79,25q0,4.34-4.74,10.68a98.75,98.75,0,0,1-9.52,11.07q-4.78,4.73-7.14,6.77l7,24.42L28.21,85.3,10.45,34.56a4.16,4.16,0,0,0-.74.74c-.43.49-1,1.13-1.72,1.91s-1.15,1.27-1.33,1.45A6,6,0,0,1,5.9,37q-.63-1.66-1.7-4.63T1.8,25.79Q.47,22.17,0,21.25ZM25,32l3.17,11.41q2.4-2.43,6-6.65c2.38-2.82,3.56-4.85,3.56-6.12,0-.49-.2-.77-.61-.85a15.8,15.8,0,0,0-3.45-.39A14.14,14.14,0,0,0,25,32Z"/><path class="cls-1" d="M81.85,40.83a12.33,12.33,0,0,1,4.47,4,17.23,17.23,0,0,1,2.52,5.61,26.14,26.14,0,0,1,.79,6.48,31.42,31.42,0,0,1-.44,5.38A28.25,28.25,0,0,1,88,67a15.78,15.78,0,0,1-1.82,3.68A37.11,37.11,0,0,1,80.93,77a28.66,28.66,0,0,1-5.69,4.24,25.68,25.68,0,0,1-5.75,2.36,22,22,0,0,1-5.63.75,19,19,0,0,1-6.25-1,16.93,16.93,0,0,1-5-2.69,18.91,18.91,0,0,1-5.38-7.72,27.55,27.55,0,0,1-1.94-10.28q0-9.33,5.38-15.06a35.18,35.18,0,0,1,9.52-7.41A22,22,0,0,1,76,38.41,26.76,26.76,0,0,1,81.85,40.83Zm-2.28,6.5a10.75,10.75,0,0,1-2.84,5.19,6.17,6.17,0,0,1-4.28,2.24,3.28,3.28,0,0,1-1.86-.54A4,4,0,0,1,69.43,51a6.19,6.19,0,0,1,1.18-3.52,7.78,7.78,0,0,1,3.74-2.75,12.91,12.91,0,0,0-4.94,1,13.93,13.93,0,0,0-4.08,2.49,12.45,12.45,0,0,0-2.73,3.45,8.14,8.14,0,0,0-1,3.85,6.52,6.52,0,0,0,3.33,5.73,11.1,11.1,0,0,0,5.89,2,7.22,7.22,0,0,0,4.87-1.84,11.61,11.61,0,0,0,3.25-4.72A15.6,15.6,0,0,0,80,50.89,12.94,12.94,0,0,0,79.57,47.33Z"/><path class="cls-1" d="M83.21,18.07l19.66-8.24,2.86,44.7,16.18-8.86,16.8,2.51L116.8,65l20.63,15.56.93,15.52L107.94,74.19l1,19-18.42.35L87,26.32l-5.69,1.27Z"/><path class="cls-1" d="M165.64,61.34,175,72.6q-1.12,3.25-5.32,6a35.46,35.46,0,0,1-10,4.27,43.85,43.85,0,0,1-11.56,1.57A28.19,28.19,0,0,1,139,83.05a12.81,12.81,0,0,1-6.17-4.1q-3.77-4.73-3.76-12.07a32.29,32.29,0,0,1,2.11-11.44q2.12-5.62,4.47-7.88a28.86,28.86,0,0,1,6.13-4.45A29.6,29.6,0,0,1,156,39.55a28,28,0,0,1,9.35,1.57,23.07,23.07,0,0,1,7.76,4.55L151.83,71a12.66,12.66,0,0,0,5.36-1.18,15.85,15.85,0,0,0,4.66-3.37A24.54,24.54,0,0,0,165.64,61.34ZM135,24.42,155.66,13l8.86,13.63-25,4.76Zm19.89,27.91a8.34,8.34,0,0,0-3.87-1,10,10,0,0,0-4,.85,6.46,6.46,0,0,0-2.77,2,10.89,10.89,0,0,0-2.4,6.81,12.19,12.19,0,0,0,.27,2.6c.18.82.49,2,.93,3.4Z"/><path class="cls-1" d="M194.94,7.28,211.12,0l1,52.4A31.18,31.18,0,0,1,212.4,57a24.42,24.42,0,0,1-.16,3.33L212.71,84,195.29,85V82.59a22.54,22.54,0,0,1-8.59,1.74,19.09,19.09,0,0,1-6.25-1,17,17,0,0,1-5-2.71A18.91,18.91,0,0,1,170,72.9a27.55,27.55,0,0,1-1.94-10.28q0-9.33,5.38-15.06A36.07,36.07,0,0,1,183,40.17a22,22,0,0,1,10.08-2.51c1,0,1.68,0,2.17.07Zm.35,37.58a12.42,12.42,0,0,0-4.2,1.35,14.34,14.34,0,0,0-3.54,2.55,11.37,11.37,0,0,0-2.3,3.24,7.94,7.94,0,0,0-.83,3.46,6.62,6.62,0,0,0,3.32,5.73,10.65,10.65,0,0,0,6,2,11.41,11.41,0,0,0,1.59-.15V54.76a3.28,3.28,0,0,1-1.86-.54c-.77-.62-1.16-1.8-1.16-3.56A6.55,6.55,0,0,1,195.29,44.86Z"/><path class="cls-1" d="M244.91,61.34l9.32,11.26c-.74,2.17-2.52,4.16-5.32,6a35.46,35.46,0,0,1-10,4.27,43.85,43.85,0,0,1-11.56,1.57,28.19,28.19,0,0,1-9.11-1.36,12.81,12.81,0,0,1-6.17-4.1q-3.76-4.73-3.76-12.07a32.51,32.51,0,0,1,2.11-11.44q2.12-5.62,4.47-7.88a28.92,28.92,0,0,1,6.14-4.45,29.6,29.6,0,0,1,14.18-3.56,28,28,0,0,1,9.35,1.57,23.07,23.07,0,0,1,7.76,4.55L231.09,71a12.66,12.66,0,0,0,5.36-1.18,15.85,15.85,0,0,0,4.66-3.37A24.94,24.94,0,0,0,244.91,61.34Zm-10.72-9a8.4,8.4,0,0,0-3.87-1,10,10,0,0,0-4,.85,6.52,6.52,0,0,0-2.77,2A10.89,10.89,0,0,0,221.1,61a11.58,11.58,0,0,0,.28,2.6c.18.82.49,2,.92,3.4Z"/><path class="cls-1" d="M276.6,75.39l-9.36,12.12-20,.61,19.35-25.58L244.75,34.25l21.21.93,10.64,14,10.61-14,21.25-.93L286.59,62.54l19.35,25.58-20-.61Z"/></g></g></svg>